<svg xmlns="http://www.w3.org/2000/svg" viewBox="0 0 500 300" width="500" height="300">
<!-- Icon from Lucide (https://lucide.dev), ISC License -->
<defs>
<linearGradient id="bg" x1="0" y1="0" x2="1" y2="1"><stop offset="0" stop-color="#6366f1"/><stop offset="1" stop-color="#312e81"/></linearGradient>
<radialGradient id="glow" cx=".78" cy=".3" r=".55"><stop offset="0" stop-color="#fff" stop-opacity=".38"/><stop offset="1" stop-color="#fff" stop-opacity="0"/></radialGradient>
<radialGradient id="shade" cx=".1" cy="1" r=".8"><stop offset="0" stop-color="#000" stop-opacity=".35"/><stop offset="1" stop-color="#000" stop-opacity="0"/></radialGradient>
<pattern id="dots" width="18" height="18" patternUnits="userSpaceOnUse"><circle cx="2" cy="2" r="1.2" fill="#fff" fill-opacity=".12"/></pattern>
<linearGradient id="glass" x1="0" y1="0" x2="0" y2="1"><stop offset="0" stop-color="#fff" stop-opacity=".30"/><stop offset="1" stop-color="#fff" stop-opacity=".10"/></linearGradient>
</defs>
<rect width="500" height="300" fill="url(#bg)"/>
<rect width="500" height="300" fill="url(#dots)"/>
<rect width="500" height="300" fill="url(#glow)"/>
<g transform="translate(250 10) rotate(-2 120 140) scale(11)" fill="none" stroke="#fff" stroke-opacity=".13" stroke-width="1.4" stroke-linecap="round" stroke-linejoin="round"><path d="M12 5a3 3 0 1 0-5.997.125 4 4 0 0 0-2.526 5.77 4 4 0 0 0 .556 6.588A4 4 0 1 0 12 18Z" />
  <path d="M9 13a4.5 4.5 0 0 0 3-4" />
  <path d="M6.003 5.125A3 3 0 0 0 6.401 6.5" />
  <path d="M3.477 10.896a4 4 0 0 1 .585-.396" />
  <path d="M6 18a4 4 0 0 1-1.967-.516" />
  <path d="M12 13h4" />
  <path d="M12 18h6a2 2 0 0 1 2 2v1" />
  <path d="M12 8h8" />
  <path d="M16 8V5a2 2 0 0 1 2-2" />
  <circle cx="16" cy="13" r=".5" />
  <circle cx="18" cy="3" r=".5" />
  <circle cx="20" cy="21" r=".5" />
  <circle cx="20" cy="8" r=".5" /></g>
<rect width="500" height="300" fill="url(#shade)"/>
<g transform="translate(366 38)">
<rect width="96" height="96" rx="26" fill="url(#glass)" stroke="#fff" stroke-opacity=".35"/>
<g transform="translate(24 24) scale(2)" fill="none" stroke="#fff" stroke-width="1.75" stroke-linecap="round" stroke-linejoin="round"><path d="M12 5a3 3 0 1 0-5.997.125 4 4 0 0 0-2.526 5.77 4 4 0 0 0 .556 6.588A4 4 0 1 0 12 18Z" />
  <path d="M9 13a4.5 4.5 0 0 0 3-4" />
  <path d="M6.003 5.125A3 3 0 0 0 6.401 6.5" />
  <path d="M3.477 10.896a4 4 0 0 1 .585-.396" />
  <path d="M6 18a4 4 0 0 1-1.967-.516" />
  <path d="M12 13h4" />
  <path d="M12 18h6a2 2 0 0 1 2 2v1" />
  <path d="M12 8h8" />
  <path d="M16 8V5a2 2 0 0 1 2-2" />
  <circle cx="16" cy="13" r=".5" />
  <circle cx="18" cy="3" r=".5" />
  <circle cx="20" cy="21" r=".5" />
  <circle cx="20" cy="8" r=".5" /></g>
</g>
</svg>
